<?xml version="1.0" encoding="utf-8"?>
<!-- Generator: Adobe Illustrator 23.0.6, SVG Export Plug-In . SVG Version: 6.00 Build 0)  -->
<svg version="1.1" id="Layer_1" xmlns="http://www.w3.org/2000/svg" xmlns:xlink="http://www.w3.org/1999/xlink" x="0px" y="0px"
	 viewBox="0 0 512 512" style="enable-background:new 0 0 512 512;" xml:space="preserve">
<style type="text/css">
	.st0{fill:#BFA89B;}
</style>
<g>
	<g>
		<path class="st0" d="M503.5,0H8.5C3.8,0,0,3.8,0,8.5v494.9c0,4.7,3.8,8.5,8.5,8.5h494.9c4.7,0,8.5-3.8,8.5-8.5V8.5
			C512,3.8,508.2,0,503.5,0z M290.1,392.5c0,42.3-34.4,76.8-76.8,76.8s-76.8-34.5-76.8-76.8c0-4.7,3.8-8.5,8.5-8.5s8.5,3.8,8.5,8.5
			c0,32.9,26.8,59.7,59.7,59.7s59.7-26.8,59.7-59.7V187.7c0-4.7,3.8-8.5,8.5-8.5s8.5,3.8,8.5,8.5L290.1,392.5L290.1,392.5z
			 M392.5,315.7c42.4,0,76.8,34.5,76.8,76.8s-34.4,76.8-76.8,76.8s-76.8-34.5-76.8-76.8c0-4.7,3.8-8.5,8.5-8.5s8.5,3.8,8.5,8.5
			c0,32.9,26.8,59.7,59.7,59.7s59.7-26.8,59.7-59.7c0-32.9-26.8-59.7-59.7-59.7c-42.4,0-76.8-34.5-76.8-76.8s34.4-76.8,76.8-76.8
			s76.8,34.5,76.8,76.8c0,4.7-3.8,8.5-8.5,8.5s-8.5-3.8-8.5-8.5c0-32.9-26.8-59.7-59.7-59.7s-59.7,26.8-59.7,59.7
			S359.6,315.7,392.5,315.7z"/>
	</g>
</g>
</svg>
